<svg width="193" height="128" viewBox="0 0 193 128" fill="none" xmlns="http://www.w3.org/2000/svg">
<rect width="193" height="128" rx="16" fill="white"/>
<g clip-path="url(#clip0_2032_64992)">
<path d="M73.5746 35.2004V38.8154C72.2623 39.971 69.1263 40.6584 66.7916 40.6584C64.4598 40.6584 58.0056 39.2124 58.0056 32.4181C58.0056 25.6238 64.1489 24.16 66.6272 24.16C69.1084 24.16 71.7511 24.6104 73.2817 25.6238V28.8031C73.2817 29.2002 72.7346 29.1646 72.7346 28.8031C72.6987 28.2609 71.2399 25.0104 67.5928 25.0815C63.6557 25.1615 60.9951 28.2283 60.9951 32.2729C60.9951 36.3175 63.5809 39.7902 67.4851 39.6806C68.7527 39.645 70.074 39.248 70.7137 38.7205L70.7287 35.2004C70.7287 34.19 70.1099 33.8285 69.491 33.8285C69.0875 33.8285 69.0875 33.2507 69.491 33.2507H74.8123C75.2128 33.2507 75.2128 33.8641 74.8123 33.8285C74.1964 33.8285 73.5746 34.19 73.5746 35.2004ZM109.451 28.8061C109.451 29.2032 109.05 29.1676 109.05 28.8061C109.011 28.2639 107.556 24.9037 103.908 24.9778C99.9714 25.0549 97.3078 28.2313 97.3078 32.2759C97.3078 36.3205 99.8608 39.8998 103.762 39.7932C107.663 39.6835 109.523 35.8553 109.669 35.3486C109.816 34.8419 110.07 34.916 110.07 35.313V38.2761C108.467 39.4317 105.439 40.6614 103.107 40.6614C100.776 40.6614 94.3213 39.2154 94.3213 32.4211C94.3213 25.6238 100.447 24 102.925 24C105.406 24 107.92 24.6134 109.454 25.6238L109.451 28.8061ZM135.558 24.3971C136.141 24.3971 136.141 24.9393 135.558 24.9393C134.936 24.9393 134.317 25.3008 134.317 26.3112V38.3442C134.317 39.3546 134.936 39.7161 135.558 39.7161C136.141 39.7161 136.141 40.4391 135.558 40.4391H130.198C129.615 40.4391 129.615 39.7161 130.198 39.7161C130.819 39.7161 131.438 39.3546 131.438 38.3442V26.3112C131.438 25.2978 130.819 24.9393 130.198 24.9393C129.615 24.9393 129.615 24.3971 130.198 24.3971H135.558ZM92.9342 24.3971C93.5172 24.3971 93.5172 24.9393 92.9342 24.9393C92.3154 24.9393 91.6966 25.3008 91.6966 26.3112L91.6249 34.2078C91.6249 37.9887 88.5308 40.768 84.7133 40.768C80.8958 40.768 77.9153 37.9887 77.9153 34.2078V26.3112C77.9153 25.2978 77.2935 24.9393 76.6747 24.9393C76.0917 24.9393 76.0917 24.3971 76.6747 24.3971H82.0706C82.6536 24.3971 82.6536 24.9393 82.0706 24.9393C81.4488 24.9393 80.83 25.3008 80.83 26.3112L80.824 35.1293C80.824 37.7961 83.0242 39.9591 85.7147 39.9591C88.4052 39.9591 90.5875 37.2538 90.5875 34.59L90.456 26.3112C90.456 25.2978 89.8372 24.9393 89.2154 24.9393C88.6354 24.9393 88.6354 24.3971 89.2154 24.3971H92.9342ZM97.9236 59.7998C101.168 58.2117 104.738 57.3883 108.357 57.3938C111.899 57.3945 115.396 58.1885 118.585 59.7166C121.774 61.2447 124.574 63.4674 126.775 66.2186C128.976 68.9698 130.521 72.1783 131.296 75.6046C132.07 79.0309 132.053 82.5863 131.247 86.0052C130.44 89.4241 128.864 92.6182 126.637 95.3488C124.41 98.0794 121.59 100.276 118.386 101.774C115.182 103.273 111.679 104.034 108.136 104.002C104.594 103.97 101.105 103.145 97.9296 101.588C94.7548 103.142 91.2668 103.965 87.726 103.996C84.1853 104.027 80.6833 103.265 77.4814 101.766C74.2796 100.267 71.4606 98.0712 69.235 95.3415C67.0094 92.6118 65.4347 89.419 64.6284 86.0015C63.8221 82.5841 63.805 79.0303 64.5785 75.6054C65.352 72.1805 66.896 68.973 69.0953 66.2224C71.2946 63.4718 74.0923 61.2492 77.2797 59.7205C80.467 58.1918 83.9615 57.3964 87.5024 57.3938C91.2512 57.3938 94.7787 58.259 97.9236 59.7998ZM102.665 62.8607C106.307 65.8776 108.929 69.9282 110.177 74.467H105.305C103.936 70.6347 101.345 67.3487 97.9236 65.1067C94.5087 67.3502 91.9224 70.6334 90.5546 74.4611L85.6849 74.4641C86.9491 69.9197 89.5787 65.8644 93.2242 62.837C91.3703 62.2686 89.44 61.9828 87.4994 61.9896C84.7813 61.9922 82.0958 62.5768 79.6268 63.7035C77.1577 64.8302 74.9634 66.4723 73.1939 68.5175C71.4245 70.5626 70.1218 72.9625 69.3748 75.553C68.6279 78.1435 68.4544 80.8633 68.8663 83.5263C69.2781 86.1894 70.2656 88.7328 71.7611 90.9826C73.2566 93.2323 75.2248 95.1353 77.5311 96.5612C79.8373 97.9871 82.4271 98.9023 85.1233 99.2442C87.8195 99.5861 90.5583 99.3465 93.1525 98.542C90.7785 96.5543 88.8278 94.1177 87.4143 91.3746C86.0007 88.6314 85.1527 85.6367 84.9196 82.5651H96.106V87.2142L90.6653 87.2112C92.0618 90.922 94.6079 94.0991 97.9386 96.2871C101.269 94.1029 103.812 90.924 105.197 87.2112L99.7561 87.2142V82.5651H110.943C110.696 85.6376 109.834 88.6306 108.407 91.3692C106.98 94.1078 105.017 96.5372 102.632 98.5154C105.459 99.4071 108.458 99.6256 111.386 99.1531C114.314 98.6806 117.089 97.5304 119.485 95.7959C121.88 94.0614 123.829 91.7915 125.174 89.1704C126.519 86.5492 127.221 83.6508 127.224 80.7103C127.226 77.7698 126.53 74.8701 125.19 72.2465C123.85 69.623 121.905 67.3495 119.512 65.6107C117.12 63.8719 114.348 62.7166 111.42 62.2388C108.493 61.761 105.493 61.9741 102.665 62.8607ZM127.28 28.8061C127.28 29.2032 126.879 29.1676 126.879 28.8061C126.843 28.2639 125.385 24.9037 121.738 24.9778C117.8 25.0549 115.137 28.2313 115.137 32.2759C115.137 36.3205 117.69 39.8998 121.591 39.7932C125.492 39.6865 127.352 35.8553 127.498 35.3486C127.645 34.8419 127.902 34.916 127.902 35.313V38.2761C126.296 39.4317 123.271 40.6614 120.936 40.6614C118.605 40.6614 112.15 39.2154 112.15 32.4211C112.15 25.6238 118.276 24 120.757 24C123.235 24 125.752 24.6134 127.283 25.6238L127.28 28.8061Z" fill="#171717"/>
</g>
<defs>
<clipPath id="clip0_2032_64992">
<rect width="78" height="80" fill="white" transform="translate(58 24)"/>
</clipPath>
</defs>
</svg>
