<svg width="194" height="128" viewBox="0 0 194 128" fill="none" xmlns="http://www.w3.org/2000/svg">
<rect width="194" height="128" rx="16" fill="white"/>
<path fill-rule="evenodd" clip-rule="evenodd" d="M82.8063 71.9761C82.8063 71.0111 82.9528 70.8945 83.8957 70.821V70.5874H80.4452V70.821C81.4246 70.8945 81.5707 71.0551 81.5707 71.9761V77.9123C81.5707 78.5631 81.3881 78.7606 81.103 78.7606C80.6278 78.7606 80.9204 77.679 80.116 77.679C79.7579 77.679 79.5383 78.0663 79.5383 78.3003C79.5383 78.4904 79.6114 78.6801 79.8309 78.9142C79.9405 79.1043 80.2621 79.3018 80.7739 79.3018C81.103 79.3018 82.8063 79.2582 82.8063 76.7137V71.9761ZM113.299 70.3969H113.043C113.007 70.5504 112.97 70.8206 112.604 70.8206C112.312 70.8206 111.662 70.3969 110.938 70.3969C109.841 70.3969 108.751 71.1282 108.751 72.5899C108.751 73.8259 109.519 74.4032 110.645 75.0975C112.421 76.1795 112.604 76.6402 112.604 77.3715C112.604 78.0658 112.136 78.7971 111.149 78.7971C109.519 78.7971 108.898 77.1009 108.678 76.5232H108.393L108.751 79.2578H109.007C109.007 79.0308 109.153 78.7971 109.409 78.7971C109.767 78.7971 110.352 79.3018 111.259 79.3018C113.006 79.3018 113.803 78.0297 113.803 76.9112C113.803 74.2866 109.767 74.016 109.767 72.1296C109.767 71.3182 110.388 70.9381 111.003 70.9381C112.274 70.9381 113.042 72.0931 113.262 73.1311H113.546L113.299 70.3969ZM108.175 70.587H105.338V70.8206C106.178 70.8941 106.5 70.9742 106.5 72.4803V76.7572H106.464L101.85 70.587H99.7819V70.8206C100.25 70.8206 100.469 70.8941 100.944 71.5154V77.181C100.944 78.5626 100.688 78.7602 99.7819 78.8328V79.0665H102.618V78.8328C101.741 78.7963 101.486 78.4896 101.486 77.181V72.1657H101.522L106.829 79.2574H107.049V72.4803C107.049 70.9742 107.414 70.8941 108.175 70.8206V70.587ZM93.7063 75.7558L95.0879 72.2467L96.5061 75.7558H93.7063ZM99.6284 78.8332C99.0868 78.7967 98.9411 78.6432 98.5389 77.7151L95.5195 70.4334H95.3075L92.7633 76.7133C92.5442 77.298 92.1785 78.2194 91.8859 78.5265C91.6739 78.7967 91.4547 78.7967 91.2721 78.8332V79.0669H93.6702V78.8332C93.4141 78.8332 92.8368 78.8332 92.8368 78.2999C92.8368 78.1389 92.8733 77.9488 92.9393 77.7952L93.4875 76.2891H96.6825L97.1577 77.5251C97.2307 77.7151 97.3772 78.1389 97.3772 78.3364C97.3772 78.7967 97.0116 78.8332 96.5438 78.8332V79.0669H99.6292V78.8332H99.6284ZM91.4037 76.9108H91.038C90.5333 78.1825 89.912 78.5626 88.4279 78.5626C86.6076 78.5626 86.6076 78.5626 86.6076 78.0289V74.8635H88.4644C89.4808 74.907 89.6634 75.061 89.8025 76.099H90.0951V73.1311H89.8025C89.6634 74.016 89.5539 74.3301 88.4644 74.3301H86.6076V71.5158C86.6076 71.0555 86.7541 71.0555 87.0097 71.0555H88.64C89.9851 71.0555 90.2777 71.2817 90.4603 72.4002H90.789L90.7525 70.5874H84.3195V70.821C85.0798 70.8945 85.3724 70.9746 85.3724 71.9761V77.6786C85.3724 78.6432 85.0798 78.7602 84.3195 78.8332V79.0669H90.8625L91.4037 76.9108ZM134.734 48.699H134.2C134.12 49.0277 134.047 49.5979 133.272 49.5979C132.658 49.5979 131.269 48.699 129.719 48.699C127.416 48.699 125.106 50.2562 125.106 53.3851C125.106 56.0168 126.714 57.2594 129.105 58.7365C132.892 61.0391 133.272 62.0261 133.272 63.5833C133.272 65.0674 132.263 66.6321 130.194 66.6321C126.714 66.6321 125.413 63.013 124.953 61.7779H124.324L125.106 67.612H125.64C125.64 67.1293 125.946 66.6325 126.488 66.6325C127.256 66.6325 128.491 67.6996 130.421 67.6996C134.12 67.6996 135.824 64.9873 135.824 62.5968C135.824 57.0038 127.256 56.4339 127.256 52.3982C127.256 50.6729 128.571 49.854 129.873 49.854C132.57 49.854 134.201 52.3181 134.662 54.5331H135.276L134.734 48.699ZM120.837 48.699H120.296C120.223 49.0277 120.142 49.5979 119.374 49.5979C118.76 49.5979 117.371 48.699 115.821 48.699C113.518 48.699 111.2 50.2562 111.2 53.3851C111.2 56.0168 112.817 57.2594 115.207 58.7365C118.993 61.0391 119.374 62.0261 119.374 63.5833C119.374 65.0674 118.365 66.6321 116.296 66.6321C112.816 66.6321 111.507 63.013 111.047 61.7779H110.425L111.2 67.612H111.742C111.742 67.1293 112.049 66.6325 112.59 66.6325C113.358 66.6325 114.593 67.6996 116.523 67.6996C120.223 67.6996 121.919 64.9873 121.919 62.5968C121.919 57.0038 113.358 56.4339 113.358 52.3982C113.358 50.6729 114.673 49.854 115.975 49.854C118.673 49.854 120.296 52.3181 120.756 54.5331H121.37L120.837 48.699ZM109.33 62.5963H108.547C107.472 65.316 106.171 66.142 102.998 66.142C99.1453 66.142 99.1453 66.142 99.1453 64.9869V58.2468H103.079C105.235 58.3198 105.623 58.649 105.93 60.8785H106.551V54.5327H105.93C105.623 56.4335 105.389 57.0913 103.079 57.0913H99.1453V51.0821C99.1453 50.0951 99.4524 50.0951 99.994 50.0951H103.474C106.325 50.0951 106.94 50.5849 107.319 52.9755H108.014L107.934 49.1082H94.2915V49.5979C95.9147 49.766 96.5285 49.9271 96.5285 52.069V64.2411C96.5285 66.303 95.9147 66.5441 94.2915 66.7122V67.2024H108.168L109.33 62.5963ZM93.4431 49.1082H87.5069V49.5979C89.2833 49.6859 89.89 50.1831 89.89 53.1436V60.4614C89.89 62.6839 89.5904 63.5829 89.2833 64.2407C88.5084 65.4837 87.1268 66.3831 85.1159 66.3831C80.6419 66.3831 80.6419 62.5959 80.6419 60.7901V52.069C80.6419 50.0951 80.949 49.766 82.9594 49.5979V49.1082H75.7076V49.5979C77.6375 49.766 78.0176 50.0146 78.0176 52.069V60.6224C78.0176 62.2672 78.0176 67.6992 84.3415 67.6992C90.9795 67.6992 90.9795 62.4353 90.9795 60.2203V53.1436C90.9795 50.2558 91.4402 49.8536 93.4431 49.5979V49.1082ZM75.627 57.596H69.0401V58.0932C70.8239 58.2543 71.2846 58.2543 71.2846 60.5573V65.0019C71.2846 65.9888 69.5887 66.5665 67.7975 66.5665C63.7691 66.5665 61.13 63.5181 61.13 58.5103C61.13 51.5942 64.9246 49.8619 67.3368 49.8619C70.9774 49.8619 72.3084 52.5816 72.9953 54.5555H73.6096L73.383 48.8019H72.8347C72.6811 49.5332 71.8328 49.7013 71.6066 49.7013C70.7367 49.7013 69.5891 48.8019 67.0155 48.8019C61.5251 48.8019 58.177 53.4079 58.177 57.9256C58.177 61.5446 58.9593 63.1894 60.2754 64.7611C62.1397 66.8961 65.0126 67.8025 67.5642 67.8025C70.3644 67.8025 73.8515 66.0772 73.8515 65.7481V60.2277C73.8515 58.2539 74.4803 58.1808 75.6283 58.0928V57.596H75.627Z" fill="#171717"/>
</svg>
