<svg width="193" height="128" viewBox="0 0 193 128" fill="none" xmlns="http://www.w3.org/2000/svg">
<rect width="193" height="128" rx="16" fill="white"/>
<path fill-rule="evenodd" clip-rule="evenodd" d="M90.4251 65.2974C90.4251 67.1555 88.814 68.6613 86.8268 68.6613C84.8388 68.6613 83.2272 67.1551 83.2272 65.2974V48.274C83.2272 46.4164 84.8388 44.9106 86.8268 44.9106C88.814 44.9106 90.4251 46.4164 90.4251 48.274V65.2974ZM61.7754 51.7126C59.7878 51.7126 58.1763 50.2064 58.1763 48.3487C58.1763 46.4911 59.7878 44.9849 61.7754 44.9849H77.2831C79.2703 44.9849 80.8819 46.4911 80.8819 48.3487C80.8819 50.2064 79.2703 51.7126 77.2831 51.7126H61.7754ZM76.2497 60.41C78.2369 60.41 79.848 58.9038 79.848 57.0457C79.848 55.1876 78.2369 53.6819 76.2497 53.6819H61.8551C59.8675 53.6819 58.2568 55.1876 58.2568 57.0457V65.2974C58.2568 67.1555 59.8679 68.6613 61.8551 68.6613C63.8423 68.6613 65.4543 67.1551 65.4543 65.2974V60.3909L76.2497 60.41ZM130.088 68.6891C133.256 68.6891 135.824 66.2508 135.824 63.2903C135.824 62.1797 135.462 61.1483 134.844 60.2925L125.553 46.1462C124.911 45.2231 123.798 44.613 122.533 44.613C121.228 44.613 120.085 45.2626 119.454 46.235L109.411 61.3579H100.127V48.3487C100.127 46.4906 98.5158 44.9849 96.5286 44.9849C94.5414 44.9849 92.9298 46.4911 92.9298 48.3487V65.2974C92.9298 67.1555 94.5414 68.6613 96.5286 68.6613H109.77C111.4 68.6791 113.03 67.8237 114.223 66.0769L122.533 53.6259L128.1 61.9141L120.307 61.9328C118.319 61.9328 116.707 63.4385 116.707 65.2966C116.707 67.1547 118.319 68.6604 120.307 68.6604L130.088 68.6891ZM63.8307 77.1632C63.962 76.9183 64.1532 76.7105 64.3864 76.5593C64.6133 76.4095 64.8794 76.3302 65.1513 76.3315C66.1059 76.3315 66.6176 76.8739 66.6861 77.9592H63.6269C63.6269 77.6795 63.695 77.4135 63.8307 77.1632ZM66.445 79.8891C66.3242 80.0585 66.1578 80.2021 65.9444 80.3179C65.7319 80.4345 65.4908 80.493 65.2227 80.493C64.6993 80.493 64.3021 80.3374 64.032 80.0261C63.7618 79.7157 63.6265 79.2716 63.6265 78.6943H67.6415C67.6415 78.046 67.5539 77.4807 67.3788 76.9984C67.2036 76.5162 66.9388 76.1447 66.5848 75.8845C66.2312 75.6243 65.7954 75.4939 65.2775 75.4939C64.6931 75.4939 64.2034 75.6268 63.8091 75.8928C63.4136 76.158 63.121 76.5211 62.9296 76.9814C62.7379 77.4409 62.6424 77.963 62.6424 78.5473C62.6424 79.0782 62.7408 79.5517 62.9371 79.9676C63.1334 80.3834 63.4169 80.7084 63.7867 80.9437C64.1569 81.1778 64.5939 81.2957 65.0978 81.2957C65.7199 81.2957 66.2175 81.1699 66.5898 80.9188C66.8818 80.7296 67.1216 80.4702 67.2875 80.1643C67.4498 79.8634 67.5427 79.614 67.5664 79.4168H66.6409C66.6313 79.5617 66.5657 79.719 66.445 79.8891ZM75.6454 80.1203L77.1171 75.6529H78.1352C77.9741 76.102 77.8243 76.5236 77.684 76.9175C77.5438 77.3105 77.3964 77.7223 77.2416 78.1506C76.8917 79.116 76.5314 80.0777 76.1609 81.0355C75.9148 81.6663 75.7263 82.1216 75.5956 82.4038C75.4649 82.686 75.3337 82.899 75.2021 83.045C75.0702 83.1903 74.9208 83.2833 74.7531 83.3248C74.5854 83.3671 74.3368 83.3879 74.0064 83.3879C73.9504 83.3879 73.8213 83.3596 73.6196 83.3028V82.4557C73.7973 82.5188 73.9828 82.5507 74.1758 82.5507C74.3401 82.5507 74.465 82.5242 74.5505 82.4706C74.636 82.4171 74.7174 82.3084 74.7954 82.1473C74.873 81.985 74.9921 81.6966 75.1528 81.2816L73.1141 75.6533H74.1654L75.6246 80.1207H75.6454V80.1203ZM84.7973 77.1632C84.9334 76.9125 85.1181 76.7116 85.3526 76.5593C85.5871 76.407 85.8419 76.3315 86.1179 76.3315C87.0725 76.3315 87.5842 76.8739 87.6527 77.9592H84.5935C84.5935 77.6795 84.6611 77.4135 84.7973 77.1632ZM87.4116 79.8891C87.2908 80.0585 87.1244 80.2021 86.911 80.3179C86.6981 80.4345 86.4574 80.493 86.1893 80.493C85.6655 80.493 85.2688 80.3374 84.9986 80.0261C84.7284 79.7157 84.5931 79.2716 84.5931 78.6943H88.6081C88.6081 78.046 88.5205 77.4807 88.345 76.9984C88.1698 76.5162 87.9055 76.1447 87.5519 75.8845C87.1978 75.6243 86.762 75.4939 86.2445 75.4939C85.6597 75.4939 85.17 75.6268 84.7753 75.8928C84.3806 76.158 84.0876 76.5211 83.8958 76.9814C83.7045 77.4409 83.6095 77.963 83.6095 78.5473C83.6095 79.0782 83.7074 79.5517 83.9041 79.9676C84.1004 80.3834 84.3839 80.7084 84.7541 80.9437C85.1239 81.1778 85.5605 81.2957 86.0652 81.2957C86.6873 81.2957 87.185 81.1699 87.5572 80.9188C87.8492 80.7297 88.089 80.4702 88.2545 80.1643C88.4172 79.8634 88.5102 79.614 88.5342 79.4168H87.6079C87.5975 79.5617 87.5319 79.719 87.4116 79.8891ZM97.7185 76.8868L96.6485 81.1376H95.6915L94.1031 75.6529H95.1142L96.1638 79.9613H96.1841L97.2466 75.6529H98.2755L99.3479 79.9613H99.3682L100.485 75.6529H101.409L99.8098 81.1376H98.8553L97.7421 76.8868H97.7185ZM108.093 77.1632C108.224 76.9181 108.415 76.7103 108.648 76.5593C108.875 76.4095 109.141 76.3302 109.413 76.3315C110.368 76.3315 110.88 76.8739 110.948 77.9592H107.888C107.888 77.6795 107.957 77.4135 108.093 77.1632ZM110.707 79.8891C110.586 80.0585 110.42 80.2021 110.207 80.3179C109.993 80.4345 109.753 80.493 109.485 80.493C108.961 80.493 108.565 80.3374 108.294 80.0261C108.024 79.7157 107.888 79.2716 107.888 78.6943H111.904C111.904 78.046 111.816 77.4807 111.642 76.9984C111.466 76.5162 111.201 76.1447 110.848 75.8845C110.494 75.6243 110.059 75.4939 109.541 75.4939C108.956 75.4939 108.466 75.6268 108.071 75.8928C107.677 76.158 107.384 76.5211 107.192 76.9814C107.001 77.4409 106.906 77.963 106.906 78.5473C106.906 79.0782 107.004 79.5517 107.2 79.9676C107.396 80.3834 107.68 80.7084 108.05 80.9437C108.42 81.1778 108.857 81.2957 109.361 81.2957C109.984 81.2957 110.48 81.1699 110.853 80.9188C111.145 80.7296 111.385 80.4701 111.551 80.1643C111.713 79.8634 111.806 79.614 111.83 79.4168H110.904C110.894 79.5617 110.828 79.719 110.707 79.8891ZM121.047 79.89C120.886 80.0879 120.674 80.2436 120.411 80.356C120.152 80.4684 119.874 80.5263 119.592 80.5262C118.929 80.5262 118.598 80.2091 118.598 79.5754C118.598 79.3637 118.659 79.1952 118.781 79.0703C118.904 78.9445 119.047 78.8561 119.212 78.8051C119.376 78.754 119.563 78.7142 119.77 78.6851C120.296 78.6171 120.659 78.5577 120.862 78.5083C121.065 78.4589 121.207 78.4021 121.289 78.3373V79.2396C121.289 79.4749 121.208 79.6924 121.047 79.89ZM119.083 76.5664C119.25 76.3638 119.563 76.2634 120.021 76.2634C120.88 76.2634 121.31 76.561 121.31 77.1557C121.31 77.5587 121.149 77.7741 120.828 77.8028L119.31 77.9924C118.643 78.0742 118.197 78.2884 117.972 78.6353C117.748 78.9815 117.636 79.3413 117.636 79.7136C117.636 80.0224 117.709 80.2971 117.855 80.5378C118 80.7786 118.205 80.9649 118.466 81.0973C118.727 81.2297 119.025 81.2961 119.357 81.2961C119.834 81.2961 120.224 81.2118 120.529 81.0442C120.834 80.8766 121.108 80.6593 121.34 80.4013C121.362 80.664 121.439 80.869 121.57 81.0172C121.701 81.1654 121.951 81.2392 122.32 81.2392C122.434 81.2388 122.547 81.2213 122.656 81.1874C122.701 81.1737 122.757 81.1575 122.825 81.138V80.466C122.685 80.4926 122.584 80.5067 122.521 80.5067C122.318 80.5067 122.216 80.398 122.216 80.1817V77.0258C122.216 76.6058 122.09 76.2817 121.839 76.053C121.588 75.8243 121.309 75.6745 120.999 75.6023C120.689 75.5309 120.417 75.4944 120.181 75.4944C119.472 75.4944 118.921 75.6413 118.53 75.9347C118.138 76.2273 117.933 76.6901 117.913 77.3226H118.766C118.811 77.0204 118.916 76.7685 119.083 76.5664ZM129.769 77.9484V81.1376H128.843V75.6529H129.716V76.5622H129.739C130.147 75.8505 130.663 75.4939 131.283 75.4939C131.373 75.4939 131.452 75.5051 131.524 75.5271V76.478H131.178C130.76 76.478 130.422 76.6208 130.162 76.9059C129.9 77.1914 129.769 77.5384 129.769 77.9484Z" fill="#171717"/>
</svg>
