<svg width="193" height="128" viewBox="0 0 193 128" fill="none" xmlns="http://www.w3.org/2000/svg">
<rect width="193" height="128" rx="16" fill="white"/>
<g clip-path="url(#clip0_2032_65006)">
<path d="M54.9384 95.9951C54.8972 95.9903 54.7574 95.9759 54.6278 95.9629C53.445 95.8446 52.1823 95.3625 51.1898 94.6504C49.7016 93.5828 48.6529 92.0282 48.2155 90.2412C47.9831 89.2917 47.9369 88.2279 48.0855 87.2492C48.4842 84.6253 50.2241 82.3778 52.6378 81.3689C53.2402 81.1172 53.838 80.958 54.5422 80.8618C54.9325 80.8085 55.8832 80.8082 56.277 80.8613C57.1121 80.9739 57.82 81.1838 58.5473 81.5345C59.3475 81.9203 59.9014 82.3176 60.5717 82.9868C61.1577 83.5718 61.5196 84.0587 61.9392 84.8267L62.0284 84.9901L61.7121 85.2233C61.2764 85.5445 60.2543 86.2712 59.9214 86.4965L59.6464 86.6826L59.5333 86.4376C59.3935 86.1348 59.2939 85.9552 59.1327 85.7153C58.4884 84.7565 57.4611 84.0717 56.3413 83.8545C55.7487 83.7396 55.0192 83.7524 54.4351 83.8879C53.8217 84.0303 53.1556 84.3495 52.6467 84.7451C52.4416 84.9045 52.0641 85.2776 51.898 85.485C51.0017 86.6042 50.6716 88.03 50.979 89.4541C51.0854 89.9471 51.3609 90.5913 51.6482 91.0192C52.4088 92.1515 53.5745 92.877 54.895 93.0396C55.1284 93.0684 55.6907 93.0684 55.9242 93.0396C57.0935 92.8956 58.1741 92.2901 58.9124 91.3652C59.1298 91.0928 59.2813 90.857 59.4542 90.5221C59.5299 90.3754 59.5982 90.2553 59.6059 90.2553C59.6136 90.2553 60.152 90.6339 60.8023 91.0967L61.9847 91.9381L61.8648 92.1639C61.6162 92.6325 61.1885 93.2216 60.7901 93.644C60.1114 94.3637 59.4503 94.8528 58.5901 95.2716C57.8472 95.6332 57.06 95.8639 56.2234 95.9651C56.0359 95.9878 55.0717 96.0103 54.9384 95.9951ZM65.0476 88.3344V80.9603H67.9175V86.2534H75.4138V80.9603H78.2837V95.7086H75.4138V89.2202H67.9175V95.7086H65.0476V88.3344ZM81.1833 94.4013C81.5032 93.6823 82.9791 90.364 84.4631 87.0272L87.1614 80.9603L89.1746 80.9605L91.1879 80.9607L94.4496 88.244C96.2435 92.2498 97.7297 95.568 97.7522 95.6179L97.7932 95.7086H94.3567L93.6932 94.2467L93.0298 92.7848L89.1896 92.79L85.3493 92.7952L84.6933 94.2519L84.0373 95.7086H80.6016L81.1833 94.4013ZM91.816 89.8094C91.8039 89.7574 89.1965 83.9495 89.1854 83.9497C89.1774 83.9498 86.7012 89.7088 86.6616 89.8192C86.6572 89.8315 87.6474 89.8392 89.2387 89.8392C91.4369 89.8392 91.8218 89.8347 91.816 89.8094ZM100.108 88.3344V80.9603L102.127 80.9607L104.146 80.9612L107.305 85.3828L110.464 89.8044L110.469 85.3823L110.475 80.9603H113.366V95.709L112.206 95.7035L111.046 95.698L107.039 90.1548C104.835 87.106 103.025 84.6113 103.016 84.6108C103.007 84.6104 103 87.1072 103 90.1593V95.7086H100.108V88.3344ZM118.592 88.3344V80.9603H128.937V83.927H121.483V86.8724H128.38V89.8392H121.483V92.7846H130.008V95.7086H118.592V88.3344ZM134.056 88.3344V80.9603H136.947V92.7846H145V95.7086H134.056V88.3344ZM84.5063 77.2094C81.4171 77.067 77.977 76.1322 75.2038 74.6816C73.0747 73.568 71.3873 72.3219 69.6195 70.5576C68.235 69.1757 67.2135 67.9029 66.3489 66.4819L65.9704 65.8599L66.5074 65.576C67.5537 65.023 72.3236 62.589 72.3611 62.589C72.382 62.589 72.579 62.8563 72.799 63.183C75.2848 66.8751 79.1736 69.2769 83.7244 69.9306C84.52 70.0449 86.9123 70.0267 87.7786 69.8998C88.7426 69.7585 89.8989 69.4965 90.6333 69.253C90.6811 69.2372 90.5898 69.0894 90.3797 68.8426C88.753 66.9318 87.2701 64.3091 86.4359 61.8675C84.9269 57.451 84.8194 52.7102 86.1275 48.2558C86.9398 45.4897 88.3377 42.8049 90.108 40.6108C90.3718 40.2839 90.5876 39.9955 90.5876 39.9699C90.5876 39.8828 89.2056 39.5163 88.2999 39.3631C86.9005 39.1264 84.7098 39.097 83.4451 39.298C81.3171 39.6362 79.1572 40.4305 77.4694 41.4953C75.5886 42.682 74.0201 44.207 72.7685 46.0661L72.2159 46.887L71.5124 46.5189C71.1255 46.3165 69.6883 45.5743 68.3185 44.8695C66.9488 44.1648 65.8238 43.5844 65.8186 43.5798C65.7969 43.5607 66.6544 42.2015 67.0074 41.6958C68.0791 40.1602 69.9821 38.1265 71.3881 37.0143C75.0646 34.106 79.1519 32.4681 83.7534 32.059C84.607 31.9831 86.7235 31.9825 87.5469 32.0578C90.4683 32.3251 92.9725 33.031 95.5597 34.3164L96.7961 34.9307L97.2103 34.6958C97.8792 34.3165 99.0676 33.7692 99.9701 33.4248C102.503 32.4586 105.053 31.9986 107.871 32C109.838 32.001 111.48 32.1936 113.262 32.6328C117.288 33.6249 120.721 35.5276 123.679 38.4059C125.283 39.9664 126.54 41.5597 127.555 43.3187L127.708 43.5853L125.205 44.872C123.829 45.5797 122.389 46.3227 122.005 46.5231L121.308 46.8874L120.781 46.0952C118.181 42.1864 113.928 39.6417 109.272 39.2094C107.894 39.0814 105.848 39.1993 104.604 39.4782C103.963 39.6218 102.924 39.9177 102.924 39.9564C102.924 39.9766 103.094 40.2009 103.302 40.4548C105.97 43.717 107.636 47.6934 108.174 52.0847C108.302 53.1328 108.32 55.8087 108.204 56.8463C107.718 61.228 106.056 65.2717 103.402 68.527C102.8 69.2649 102.826 69.2139 103.019 69.2882C103.11 69.3232 103.536 69.4408 103.966 69.5494C106.152 70.1012 108.505 70.1792 110.714 69.773C114.732 69.0341 118.35 66.6662 120.678 63.2528C120.894 62.9353 121.089 62.6543 121.112 62.6283C121.134 62.6022 121.671 62.8398 122.304 63.1561C123.559 63.7828 127.488 65.8091 127.53 65.8511C127.6 65.9211 126.348 67.7735 125.58 68.7358C124.853 69.6468 122.947 71.5438 122.037 72.2629C118.746 74.8616 115.053 76.4505 110.986 77.0178C106.316 77.6691 101.37 76.7968 97.3454 74.612L96.7767 74.3032L96.0713 74.6752C92.5761 76.518 88.567 77.3965 84.5063 77.2094ZM97.554 64.4071C99.5017 62.0045 100.717 59.09 101.017 56.1034C101.117 55.101 101.057 53.0591 100.901 52.1463C100.47 49.6347 99.5482 47.482 98.0613 45.5148C97.7812 45.1444 97.3735 44.6491 97.1551 44.4144L96.7581 43.9874L96.3898 44.3855C95.9042 44.9102 95.095 45.9806 94.6871 46.6378C92.6162 49.9749 91.9401 54.0746 92.8171 57.9766C93.369 60.432 94.6378 62.9056 96.3477 64.8594L96.7415 65.3093L96.9138 65.1468C97.0086 65.0574 97.2966 64.7245 97.554 64.4071Z" fill="#171717"/>
</g>
<defs>
<clipPath id="clip0_2032_65006">
<rect width="97" height="64" fill="white" transform="translate(48 32)"/>
</clipPath>
</defs>
</svg>
