<svg width="193" height="128" viewBox="0 0 193 128" fill="none" xmlns="http://www.w3.org/2000/svg">
<rect width="193" height="128" rx="16" fill="white"/>
<path d="M139.632 82.2647L126.062 44.6115L126.052 44.5865H125.785L122.99 52.3241L117.903 66.4107L117.891 66.3995C116.128 64.8316 113.641 63.8514 110.508 63.4865L109.552 63.387L110.5 63.2645C115.666 62.3289 119.139 59.0405 119.139 55.0787C119.139 49.6458 114.069 45.8537 106.806 45.8537H91.6951V46.1288H96.0859V74.2014L85.4221 44.6114L85.4125 44.5865H85.1447L82.3502 52.3241L71.5724 82.1678L71.506 82.1755C71.3219 82.1984 71.1397 82.2166 70.9594 82.2304C70.6883 82.2518 70.4188 82.2646 70.1484 82.2646H59.2582L79.959 46.1287L80.1128 45.8572H54.795V57.0356H55.0637C55.1113 51.5908 58.2576 46.1287 65.2092 46.1287H73.5957L52.7385 82.5353H80.8371V71.8256H80.5685C80.5319 76.5713 77.8625 81.0789 72.0579 82.0967L71.8733 82.1285L76.2941 69.8825H88.6779L93.1402 82.2647H88.7383V82.5354H106.016V82.2647H101.595V63.5867H106.696C111.887 63.5867 114.864 65.9239 114.864 69.9971V73.3103C114.864 73.6754 114.888 74.2091 114.916 74.6555V74.6717L112.174 82.2629H108.592V82.5337H116.006V82.2629H112.463L114.96 75.3504C114.965 75.4172 114.968 75.4575 114.968 75.4575L115.036 76.0804L115.103 76.4924C115.519 79.0414 116.487 80.9152 117.977 82.0615L118.191 82.2184C119.324 83.0117 120.731 83.4136 122.376 83.4136C124.555 83.4136 126.007 82.8661 127.207 81.5776L127.05 81.4284C125.944 82.4565 125.017 82.873 123.855 82.873C121.875 82.873 120.839 80.4525 120.839 78.0655V73.4234C120.849 72.2716 120.67 71.1259 120.309 70.0331L120.26 69.8892V69.884H129.318L133.78 82.2664H129.378V82.5371H144.329V82.2664L139.632 82.2647ZM76.3926 69.6116L82.4932 52.7201L88.5801 69.6116H76.3926ZM101.597 63.315V46.1287H105.491C110.692 46.1287 113.438 49.2449 113.438 55.137C113.438 61.4035 111.862 63.315 106.696 63.315H101.597ZM120.154 69.6116L120.128 69.5448C119.725 68.5567 119.139 67.6552 118.401 66.8887L118.146 66.6317L118.119 66.606L123.13 52.7201L129.217 69.6116H120.154Z" fill="#171717"/>
</svg>
