<svg width="194" height="128" viewBox="0 0 194 128" fill="none" xmlns="http://www.w3.org/2000/svg">
<rect width="194" height="128" rx="16" fill="white"/>
<path fill-rule="evenodd" clip-rule="evenodd" d="M111.909 76.9224C112.127 77.2485 113.745 77.0521 114.048 76.9817C114.75 76.8142 114.589 76.2584 114.583 75.266C114.58 74.6005 114.516 73.9364 114.513 73.2702C114.51 72.9278 114.538 72.5876 114.526 72.2452C114.46 69.5393 115.05 67.4567 116.297 65.9967C117.172 64.9717 118.179 64.6019 118.352 64.5671C119.018 64.4374 119.406 64.6078 119.52 65.0851C119.692 65.8211 119.523 66.4362 119.015 66.9298C118.284 67.6339 117.949 67.3456 117.294 67.3374C116.855 67.3345 116.855 67.5264 117.291 67.914C119.045 69.4682 121.569 69.0553 121.9 69.0116C124.893 68.6366 126.696 66.5652 127.068 66.4948C127.443 66.4273 126.883 68.0704 128.155 68.6581C129.578 69.317 132.903 68.9953 134.692 67.5034L135.828 66.554C136.291 66.1679 135.913 67.579 138.031 68.6989C140.505 70.0077 144.859 68.9798 144.978 65.5454C145.016 64.5523 144.175 64.0668 145.215 63.8697C146.78 63.5732 146.281 63.7563 147.639 66.5807C147.861 67.0532 148.094 67.5202 148.339 67.9815C148.594 68.4076 148.863 69.0302 149.575 68.8708C150.509 68.664 152.184 66.786 152.327 66.6022L153.211 65.4794C153.308 65.3586 153.445 65.4016 153.624 65.6091L156.098 68.4825C156.332 68.7545 156.678 68.8871 157.132 68.873C157.631 68.8597 158.243 68.6225 158.969 68.1638C160.262 67.3441 161.217 66.5615 161.832 65.8196C162.523 64.9858 162.719 64.444 162.423 64.201C161.736 63.6347 160.596 65.0029 159.736 65.3994C157.467 66.4399 156.22 62.5475 155.311 62.0569C154.633 61.69 153.668 62.1184 152.403 63.3405L151.309 64.3951C150.881 64.8109 150.576 63.3079 150.247 62.7091C150.001 62.2666 149.788 61.9968 149.6 61.9049C148.984 61.6026 145.44 62.7091 143.341 62.8032L141.698 62.8788C141.172 62.9055 141.813 63.6444 141.91 64.1898C142.126 65.3905 141.673 66.6096 140.948 66.7956C139.674 67.1247 139.308 65.0644 139.415 64.341C139.68 62.5527 141.561 62.2807 141.687 62.1858C142.045 61.922 141.678 61.6515 140.858 61.5603C137.74 61.2179 136.7 64.5115 133.238 66.3969C130.572 67.8518 131.34 65.9871 131.246 64.8539C131.031 62.1755 132.148 61.9916 128.667 62.0939C128.409 62.1021 127.61 62.002 127.373 62.572C127.004 63.4591 127.664 63.5569 126.831 64.5219C125.815 65.698 124.713 66.4206 123.526 66.6882C121.749 67.0928 122.56 66.2087 122.726 65.6869C122.86 65.2667 122.938 64.905 122.96 64.6078C123.06 63.3702 121.457 61.9398 118.846 62.3177C116.545 62.655 114.791 64.6597 114.718 64.7079C114.672 64.7375 114.635 64.7916 114.58 64.7916H114.513C114.475 64.7916 114.461 64.5056 114.469 63.9334C114.494 62.5875 114.675 62.2688 113.498 62.2177C112.117 62.1532 112.052 62.4037 111.823 62.6816C111.439 63.1374 111.214 63.7096 110.859 64.1928C109.85 65.5654 109.112 66.162 108.64 65.9789C108.343 65.8655 105.376 62.4801 104.77 62.3481C104.226 62.2266 103.733 62.44 103.289 62.9818L101.347 65.369C101.188 65.5639 100.993 65.512 100.765 65.2126L98.9108 62.8173C98.5662 62.3748 97.5323 61.9976 96.7126 63.0114L94.7568 65.4342C94.6352 65.5854 94.4737 65.5372 94.2713 65.286L92.0887 62.6394C92.019 62.5505 91.5603 62.2162 91.0044 62.4156C90.4975 62.5994 89.1946 63.9564 88.0288 64.9488C87.6027 65.3097 87.2299 65.7388 86.7874 66.079C86.7341 66.119 86.6881 66.1709 86.6259 66.2005C86.2101 66.4051 85.8217 65.5291 85.466 65.094C84.7649 64.2469 84.2713 63.7807 83.9934 63.697C82.663 63.3005 82.8335 65.2593 82.5956 65.9367C82.0509 67.5005 79.906 67.6568 79.8949 65.9826C79.8808 64.0668 82.3688 63.239 82.4955 63.1552C82.706 63.0152 83.0788 62.6216 82.2747 62.543C80.748 62.3948 79.0886 62.924 77.295 64.1298L74.3246 66.1316C73.0002 67.0187 72.0426 63.7956 71.6758 63.2582C71.5061 63.0077 71.2281 62.3541 70.2891 62.5757C69.8897 62.6676 69.2397 63.1315 68.3414 63.9593L66.8118 65.3727C66.7035 65.4727 66.6065 65.4483 66.5257 65.303C66.4397 65.1489 66.3641 64.1557 66.3048 62.3192C66.27 61.186 66.3352 60.0499 66.2648 58.9204C66.227 58.2808 66.1647 58.2564 66.2485 56.8215C66.2566 56.6918 66.2759 56.5621 66.2729 56.4332C66.2678 55.9314 65.8764 56.0256 64.913 56.007C64.0118 55.9885 63.3596 55.8558 63.3321 56.425L63.1113 61.3372C62.9712 64.4855 63.0868 66.6437 63.4618 67.8117C63.7561 68.7285 64.1926 69.228 64.7677 69.3192C66.4241 69.5786 67.8916 67.2092 68.1532 66.9454C68.3689 66.7275 68.5927 66.411 68.9951 66.892C69.2701 67.2262 69.4346 67.645 69.691 67.9918C70.6701 69.314 71.0073 69.3222 71.9922 69.2984C73.7191 69.2569 75.4511 67.4908 75.8446 67.2855C76.3464 67.0217 76.2871 67.5553 76.3731 67.7954C76.7888 68.936 78.3393 69.772 80.1395 69.3763C82.3844 68.8827 82.4325 67.7139 83.1203 67.9459C83.5709 68.0941 84.1371 69.629 85.3163 69.4778C85.9937 69.3948 87.5715 67.9859 88.5617 67.2522C89.2717 66.7267 89.6889 66.4295 89.8134 66.3539C90.4745 65.9626 90.5664 66.8957 92.1495 68.6603C92.7268 69.2992 93.3583 69.9284 94.7175 68.5543L96.7408 66.5044C97.1995 66.0427 97.8006 67.4886 99.2391 68.9242C99.3303 69.0161 99.4111 69.1243 99.5171 69.1969C99.9699 69.5126 100.601 69.2184 101.399 68.3098L103.007 66.4799C103.145 66.3235 103.334 66.3562 103.578 66.577C104.513 67.4293 105.625 69.1673 106.524 69.248C107.337 69.3214 108.452 68.79 109.874 67.6487L111.239 66.5533C111.676 66.205 111.369 67.3678 111.544 69.8039C111.6 70.6051 111.614 71.5418 111.579 72.6098C111.509 74.6857 111.855 76.8446 111.909 76.9224ZM44.5616 71.4032C46.3314 71.6145 48.1301 71.6226 49.957 71.4262C51.5882 71.2521 52.9563 70.9971 54.0606 70.6629C57.4068 69.6497 59.8096 67.9674 60.9642 66.5518C61.8032 65.5224 60.6685 66.2265 60.0097 66.4807C57.9181 67.2901 55.7454 67.8718 53.5292 68.2157C51.5096 68.5291 51.7794 68.4046 51.7653 67.602C51.7053 64.115 51.9039 60.625 51.7898 57.1387C51.7587 56.2212 51.7905 56.262 52.8133 56.3561C54.7084 56.5288 56.7391 56.9898 58.9061 57.7413C59.3011 57.8784 60.982 58.8196 59.9971 57.327C57.8804 54.1186 51.171 53.3805 48.9394 53.2967C35.1944 52.7898 28.3783 61.5359 34.6467 67.3826C37.0117 69.5882 40.3164 70.9282 44.5616 71.4032Z" fill="#171717"/>
<path fill-rule="evenodd" clip-rule="evenodd" d="M41.8862 56.348C42.1181 56.2687 42.3568 56.2457 42.5999 56.2806C42.9393 56.328 42.9356 56.4495 42.9534 56.7074L42.9223 68.0045C42.923 68.1364 42.8823 68.2298 42.7985 68.2831C42.6251 68.3951 40.8382 68.1631 39.9059 67.8918C38.7216 67.5472 36.3181 66.4829 35.3042 64.407C34.7543 63.2805 34.8099 61.9554 34.8669 61.6537C35.4502 58.5729 38.7475 56.7667 41.8862 56.348Z" fill="#CC2229"/>
<path fill-rule="evenodd" clip-rule="evenodd" d="M128.477 60.9555C128.984 61.0822 131.04 61.123 131.295 59.6222C131.549 58.1236 129.041 57.304 127.615 58.3949C126.809 59.0123 126.579 60.4827 128.477 60.9555ZM159.388 60.931C160.096 60.931 160.682 60.35 160.682 59.6333C160.67 59.2973 160.528 58.9792 160.286 58.7461C160.044 58.5129 159.72 58.383 159.384 58.3838C159.048 58.3846 158.725 58.5159 158.484 58.7502C158.243 58.9844 158.102 59.3032 158.091 59.6393C158.091 60.3478 158.667 60.931 159.388 60.931Z" fill="#171717"/>
<path fill-rule="evenodd" clip-rule="evenodd" d="M159.393 60.7503C159.25 60.7508 159.108 60.7232 158.976 60.6688C158.844 60.6145 158.723 60.5345 158.622 60.4336C158.521 60.3326 158.44 60.2126 158.386 60.0805C158.331 59.9484 158.303 59.8068 158.303 59.6638C158.303 59.0545 158.787 58.5676 159.39 58.5676C159.533 58.5674 159.675 58.5955 159.808 58.6501C159.94 58.7048 160.061 58.785 160.162 58.8862C160.264 58.9874 160.344 59.1076 160.399 59.2399C160.454 59.3723 160.483 59.5141 160.483 59.6575C160.483 59.8008 160.455 59.9427 160.4 60.0752C160.346 60.2077 160.265 60.3281 160.164 60.4296C160.063 60.531 159.943 60.6116 159.81 60.6666C159.678 60.7216 159.536 60.7501 159.393 60.7503Z" fill="white"/>
<path fill-rule="evenodd" clip-rule="evenodd" d="M158.815 60.3581H159.116V59.7689H159.409C159.54 59.7689 159.675 59.8757 159.675 60.1136C159.675 60.29 159.683 60.307 159.695 60.3581H159.978C159.943 60.2121 159.982 60.0609 159.947 59.9142C159.909 59.7549 159.807 59.6726 159.711 59.6593C159.795 59.6417 159.87 59.5951 159.923 59.5277C159.976 59.4603 160.003 59.3764 160 59.2909C160 59.0619 159.832 58.884 159.564 58.884H158.815V60.3581Z" fill="#171717"/>
<path fill-rule="evenodd" clip-rule="evenodd" d="M159.116 59.5704V59.145H159.49C159.617 59.145 159.71 59.2443 159.71 59.3599C159.71 59.4785 159.613 59.5764 159.502 59.5749L159.116 59.5704Z" fill="white"/>
</svg>
