<svg width="32" height="32" viewBox="0 0 32 32" fill="none" xmlns="http://www.w3.org/2000/svg">
<circle cx="16" cy="16" r="15.55" stroke="white" stroke-width="0.900062"/>
<path fill-rule="evenodd" clip-rule="evenodd" d="M16 8C11.5667 8 8 11.6554 8 16.1991C8 19.8203 10.3 22.8949 13.4667 23.9882C13.8667 24.0565 14 23.8173 14 23.5782C14 23.3732 14 22.8608 14 22.1775C11.7667 22.69 11.3 21.0843 11.3 21.0843C10.9333 20.1278 10.4 19.8886 10.4 19.8886C9.66667 19.3762 10.4667 19.3762 10.4667 19.3762C11.2667 19.4445 11.7 20.2303 11.7 20.2303C12.4 21.4943 13.5667 21.1185 14.0333 20.9135C14.1 20.3669 14.3 20.0253 14.5333 19.8203C12.7667 19.6153 10.9 18.8979 10.9 15.7549C10.9 14.8667 11.2 14.1151 11.7333 13.5685C11.6667 13.3635 11.3667 12.5436 11.8 11.3821C11.8 11.3821 12.4667 11.1771 14 12.2362C14.6333 12.0654 15.3333 11.9629 16 11.9629C16.6667 11.9629 17.3667 12.0654 18 12.2362C19.5333 11.1771 20.2 11.3821 20.2 11.3821C20.6333 12.5095 20.3667 13.3294 20.2667 13.5685C20.7667 14.1493 21.1 14.8667 21.1 15.7549C21.1 18.8979 19.2333 19.5812 17.4333 19.7861C17.7333 20.0253 17.9667 20.5377 17.9667 21.2893C17.9667 22.3825 17.9667 23.2707 17.9667 23.544C17.9667 23.749 18.1 24.0223 18.5333 23.954C21.7 22.8949 24 19.8203 24 16.1991C24 11.6554 20.4333 8 16 8Z" fill="white"/>
</svg>
