<svg width="32" height="32" viewBox="0 0 32 32" fill="none" xmlns="http://www.w3.org/2000/svg">
<circle cx="16" cy="16" r="15.55" stroke="white" stroke-width="0.900062"/>
<path d="M16 9.44146C18.136 9.44146 18.389 9.44945 19.2328 9.48793C19.7401 9.49414 20.2426 9.58729 20.7185 9.76334C21.0636 9.89642 21.3769 10.1003 21.6385 10.3618C21.9 10.6233 22.1039 10.9367 22.237 11.2817C22.413 11.7576 22.5062 12.2601 22.5124 12.7674C22.5505 13.6112 22.5589 13.8641 22.5589 16C22.5589 18.1359 22.5509 18.3888 22.5124 19.2326C22.5062 19.7399 22.413 20.2424 22.237 20.7183C22.1039 21.0633 21.9 21.3767 21.6385 21.6382C21.3769 21.8997 21.0636 22.1036 20.7185 22.2367C20.2426 22.4127 19.7401 22.5059 19.2328 22.5121C18.3893 22.5502 18.1364 22.5585 16 22.5585C13.8636 22.5585 13.6107 22.5505 12.7672 22.5121C12.2599 22.5059 11.7574 22.4127 11.2815 22.2367C10.9364 22.1036 10.6231 21.8997 10.3615 21.6382C10.1 21.3767 9.89613 21.0633 9.76305 20.7183C9.58699 20.2424 9.49383 19.7399 9.48762 19.2326C9.44952 18.3888 9.44114 18.1359 9.44114 16C9.44114 13.8641 9.44914 13.6112 9.48762 12.7674C9.49383 12.2601 9.58699 11.7576 9.76305 11.2817C9.89613 10.9367 10.1 10.6233 10.3615 10.3618C10.6231 10.1003 10.9364 9.89642 11.2815 9.76334C11.7574 9.58729 12.2599 9.49414 12.7672 9.48793C13.611 9.44984 13.864 9.44146 16 9.44146V9.44146ZM16 8C13.8286 8 13.555 8.00914 12.7017 8.048C12.0377 8.0612 11.3808 8.18692 10.7589 8.41979C10.2253 8.6208 9.74209 8.93579 9.34286 9.34279C8.93547 9.74215 8.62019 10.2256 8.41905 10.7595C8.18616 11.3814 8.06044 12.0383 8.04724 12.7023C8.00914 13.5548 8 13.8283 8 15.9996C8 18.1709 8.00914 18.4445 8.048 19.2977C8.06121 19.9617 8.18693 20.6186 8.41981 21.2405C8.62073 21.7743 8.93574 22.2578 9.34286 22.6572C9.74231 23.0643 10.2258 23.3793 10.7596 23.5802C11.3816 23.8131 12.0385 23.9388 12.7025 23.952C13.5558 23.9901 13.8282 24 16.0008 24C18.1733 24 18.4457 23.9909 19.299 23.952C19.963 23.9388 20.62 23.8131 21.2419 23.5802C21.7732 23.3743 22.2556 23.0598 22.6584 22.6568C23.0611 22.2537 23.3754 21.7711 23.581 21.2398C23.8138 20.6178 23.9396 19.9609 23.9528 19.297C23.9909 18.4445 24 18.1709 24 15.9996C24 13.8283 23.9909 13.5548 23.952 12.7015C23.9388 12.0375 23.8131 11.3806 23.5802 10.7587C23.3793 10.225 23.0643 9.74147 22.6571 9.34203C22.2577 8.93494 21.7742 8.61994 21.2404 8.41903C20.6184 8.18616 19.9615 8.06044 19.2975 8.04724C18.445 8.00914 18.1714 8 16 8Z" fill="white"/>
<path d="M16 12C15.2089 12 14.4355 12.2346 13.7777 12.6741C13.1199 13.1136 12.6072 13.7384 12.3045 14.4693C12.0017 15.2002 11.9225 16.0044 12.0769 16.7804C12.2312 17.5563 12.6122 18.269 13.1716 18.8284C13.731 19.3878 14.4437 19.7688 15.2196 19.9231C15.9956 20.0775 16.7998 19.9983 17.5307 19.6955C18.2616 19.3928 18.8864 18.8801 19.3259 18.2223C19.7654 17.5645 20 16.7911 20 16C20 14.9391 19.5786 13.9217 18.8284 13.1716C18.0783 12.4214 17.0609 12 16 12ZM16 18.5964C15.4865 18.5964 14.9845 18.4442 14.5575 18.1589C14.1305 17.8736 13.7977 17.468 13.6012 16.9936C13.4047 16.5192 13.3533 15.9971 13.4535 15.4935C13.5536 14.9898 13.8009 14.5272 14.164 14.164C14.5272 13.8009 14.9898 13.5536 15.4935 13.4535C15.9971 13.3533 16.5192 13.4047 16.9936 13.6012C17.4681 13.7977 17.8736 14.1305 18.1589 14.5575C18.4442 14.9845 18.5964 15.4865 18.5964 16C18.5964 16.6886 18.3229 17.349 17.836 17.836C17.349 18.3229 16.6886 18.5964 16 18.5964V18.5964Z" fill="white"/>
<path d="M19.3334 11.9998C19.7016 11.9998 20.0001 11.7014 20.0001 11.3332C20.0001 10.965 19.7016 10.6665 19.3334 10.6665C18.9652 10.6665 18.6667 10.965 18.6667 11.3332C18.6667 11.7014 18.9652 11.9998 19.3334 11.9998Z" fill="white"/>
</svg>
