<svg width="32" height="32" viewBox="0 0 32 32" fill="none" xmlns="http://www.w3.org/2000/svg">
<circle cx="16" cy="16" r="15.55" stroke="white" stroke-width="0.900062"/>
<path d="M22.8 12.1876C22.32 12.3988 21.8133 12.5307 21.28 12.6099C21.8133 12.2932 22.24 11.7918 22.4267 11.1847C21.92 11.4751 21.36 11.6862 20.7467 11.8181C20.2667 11.3167 19.5733 11 18.8267 11C17.3867 11 16.2133 12.1612 16.2133 13.5864C16.2133 13.7975 16.24 13.9823 16.2933 14.167C14.1333 14.0614 12.1867 13.0322 10.88 11.4487C10.6667 11.8445 10.5333 12.2668 10.5333 12.7419C10.5333 13.6392 10.9867 14.4309 11.7067 14.906C11.28 14.8796 10.88 14.774 10.5067 14.5893V14.6157C10.5067 15.8825 11.4133 16.9381 12.6133 17.1757C12.4 17.2285 12.16 17.2548 11.92 17.2548C11.76 17.2548 11.5733 17.2285 11.4133 17.2021C11.76 18.2313 12.72 18.9967 13.8667 18.9967C12.96 19.6829 11.84 20.1052 10.6133 20.1052C10.4 20.1052 10.1867 20.1052 10 20.0788C11.1733 20.8177 12.5333 21.24 14.0267 21.24C18.8533 21.24 21.4933 17.2812 21.4933 13.8503C21.4933 13.7447 21.4933 13.6128 21.4933 13.5072C22 13.1641 22.4533 12.7155 22.8 12.1876Z" fill="white"/>
</svg>
